<?xml version="1.0" standalone="no"?>
<!DOCTYPE svg PUBLIC "-//W3C//DTD SVG 20010904//EN"
 "http://www.w3.org/TR/2001/REC-SVG-20010904/DTD/svg10.dtd">
<svg version="1.0" xmlns="http://www.w3.org/2000/svg"
 width="700.000000pt" height="700.000000pt" viewBox="0 0 700.000000 700.000000"
 preserveAspectRatio="xMidYMid meet">
<metadata>
Created by potrace 1.14, written by Peter Selinger 2001-2017
</metadata>
<g transform="translate(0.000000,700.000000) scale(0.100000,-0.100000)"
fill="#000000" stroke="none">
<path d="M2750 6269 c-314 -109 -683 -282 -905 -424 -164 -104 -332 -221 -361
-250 -7 -7 -66 -48 -131 -91 -108 -73 -276 -224 -353 -319 -62 -77 -175 -257
-227 -365 l-58 -119 -145 -57 c-169 -67 -333 -137 -352 -150 -7 -5 -31 -18
-53 -29 -63 -30 -132 -83 -138 -105 -11 -41 109 -100 328 -160 61 -17 127 -36
148 -42 42 -13 41 -4 22 -119 -13 -83 -17 -127 -20 -234 -2 -66 1 -145 6 -175
5 -30 12 -73 15 -95 45 -357 129 -634 285 -946 237 -474 654 -936 1134 -1256
116 -77 204 -133 210 -133 3 0 24 -12 46 -26 22 -14 98 -54 168 -89 325 -162
643 -269 976 -329 239 -42 324 -50 565 -51 336 0 506 20 775 95 156 43 386
128 485 180 19 10 73 37 120 61 47 23 114 59 149 80 34 22 65 39 67 39 13 0
296 200 373 265 379 314 697 754 897 1238 14 34 31 76 39 92 15 34 92 264 100
298 55 240 69 356 54 462 -15 110 -64 160 -141 144 -20 -5 -105 -44 -190 -88
-334 -174 -614 -267 -923 -307 -131 -17 -391 -6 -510 20 -250 57 -414 127
-615 264 -244 166 -396 288 -589 470 -74 70 -151 143 -171 162 -21 19 -93 87
-160 150 -147 137 -195 187 -256 266 -159 203 -280 440 -384 754 -35 104 -91
316 -105 395 -2 11 -6 31 -9 45 -2 14 -7 36 -10 50 -3 14 -8 43 -11 65 -3 22
-8 54 -10 70 -3 17 -7 43 -9 58 -3 15 -8 58 -12 95 -3 37 -8 78 -9 92 -2 14
-4 37 -4 53 -1 15 -4 27 -8 26 -5 0 -46 -14 -93 -30z"/>
</g>
</svg>
