<?xml version="1.0" encoding="UTF-8" standalone="no"?>
<!DOCTYPE svg PUBLIC "-//W3C//DTD SVG 1.1//EN" "http://www.w3.org/Graphics/SVG/1.1/DTD/svg11.dtd">
<svg width="100%" height="100%" viewBox="0 0 700 700" version="1.1" xmlns="http://www.w3.org/2000/svg" xmlns:xlink="http://www.w3.org/1999/xlink" xml:space="preserve" xmlns:serif="http://www.serif.com/" style="fill-rule:evenodd;clip-rule:evenodd;stroke-linejoin:round;stroke-miterlimit:2;">
    <style>
        path {
            fill: black;
        }
        @media (prefers-color-scheme: dark) {
            path { fill: white; }
        }
    </style>
    <g transform="matrix(1.20911,0,0,1.20911,-73.1944,11.4499)">
        <path d="M353.04,469.6C402.286,467.932 441.102,426.424 439.571,377.08L439.571,377.064C438.001,328.15 396.829,288.494 347.161,290.521C297.681,292.06 258.829,333.521 260.493,382.83C262.114,433.287 304.587,471.225 353.04,469.6L353.04,469.6ZM347.927,312.91C348.778,312.879 349.626,312.859 350.474,312.859C386.583,312.859 416.017,341.879 417.181,377.769C418.329,414.808 389.212,445.96 352.306,447.21C315.599,448.409 284.079,419.593 282.88,382.089C281.637,345.198 310.692,314.062 347.927,312.909L347.927,312.91Z" style="fill-rule:nonzero;"/>
        <path d="M316.45,392.22C316.583,392.22 316.708,392.22 316.837,392.216C323.02,392.001 327.86,386.818 327.649,380.638C327.215,368.04 337.399,358.06 349.126,357.697L350.723,357.666C356.907,357.533 361.821,352.42 361.692,346.236C361.567,340.052 356.329,335.103 350.262,335.267L348.544,335.306C323.899,336.075 304.407,356.751 305.259,381.408C305.47,387.455 310.438,392.22 316.45,392.22L316.45,392.22Z" style="fill-rule:nonzero;"/>
        <path d="M350,527.1C495.81,527.1 611.3,392.98 616.14,387.26C619.628,383.147 619.691,377.131 616.288,372.944C614.613,370.889 575.155,322.983 509.238,283.186L485.179,220.147C485.168,220.116 485.14,220.096 485.129,220.065L432.348,62.405C428.367,51.081 420.176,42.065 409.286,37.018C398.403,31.975 386.235,31.545 375.024,35.83C363.813,40.108 355.02,48.529 350.262,59.549C345.504,70.569 345.398,82.748 349.976,93.842C350.043,94.003 350.109,94.155 350.18,94.311L415.723,234.661L404.172,239.067C385.934,235.036 367.727,232.927 350.004,232.927C346.562,232.927 323.001,233.405 299.585,238.192C292.765,239.587 281.973,240.09 247.33,254.083C240.561,256.817 227.622,261.496 201.119,276.775C195.401,280.072 191.281,280.938 161.729,302.431C115.413,336.115 86.249,369.958 83.87,372.763C80.327,376.942 80.327,383.075 83.87,387.255C88.705,392.974 204.19,527.095 350,527.095L350,527.1ZM229.2,409.835C224.107,392.174 223.918,362.651 230.507,345.353C254.906,281.295 318.859,240.853 385.777,260.978C385.254,268.626 388.195,275.958 394.211,280.912L469.289,342.639C469.312,343.584 469.246,344.526 469.519,345.475C472.351,355.307 473.96,365.545 474.3,375.909C476.527,443.276 423.21,502.119 354.08,504.339C295.182,506.398 245.317,465.722 229.2,409.835ZM468.25,238.591L507.664,341.881C507.832,342.319 508.043,342.861 507.187,343.479C506.316,344.084 505.871,343.713 505.523,343.424L408.437,263.604C408.269,263.467 407.832,263.108 407.957,262.331C408.082,261.553 408.617,261.346 408.816,261.268L468.25,238.591ZM592.59,379.881C575.293,398.256 524.727,447.846 458.2,478.701C483.298,451.072 497.973,414.178 496.684,375.161C496.555,371.239 496.016,367.372 495.579,363.489C503.903,367.817 513.138,366.782 520.263,361.657C529.138,355.27 532.486,344.114 528.587,333.891L522.884,318.95C557.294,343.309 581.751,368.028 592.587,379.88L592.59,379.881ZM370.83,68.421C373.17,62.995 377.498,58.851 383.014,56.745C388.549,54.639 394.53,54.858 399.873,57.331C405.232,59.815 409.264,64.253 411.166,69.663L460.658,217.503L436.717,226.64L370.604,85.07C368.44,79.675 368.518,73.761 370.831,68.414L370.83,68.421ZM241.1,281.651C226.123,298.221 214.854,318.299 208.623,340.803C200.686,369.467 203.907,400.049 207.131,413.678C212.912,438.119 224.795,460.287 241.209,478.408C175.143,447.607 124.909,398.428 107.549,380.002C124.897,361.588 175.088,312.455 241.099,281.65L241.1,281.651Z" style="fill-rule:nonzero;"/>
    </g>
</svg>
