<?xml version="1.0" encoding="UTF-8" standalone="no"?>
<!DOCTYPE svg PUBLIC "-//W3C//DTD SVG 1.1//EN" "http://www.w3.org/Graphics/SVG/1.1/DTD/svg11.dtd">
<svg width="100%" height="100%" viewBox="0 0 700 700" version="1.1" xmlns="http://www.w3.org/2000/svg" xmlns:xlink="http://www.w3.org/1999/xlink" xml:space="preserve" xmlns:serif="http://www.serif.com/" style="fill-rule:evenodd;clip-rule:evenodd;stroke-linejoin:round;stroke-miterlimit:2;">
    <style>
        path {
            fill: black;
        }
        @media (prefers-color-scheme: dark) {
            path { fill: white; }
        }
    </style>
    <g transform="matrix(1.68842,0,0,1.68842,-388.664,-270.493)">
        <path d="M455,253.75C454.984,243.539 451.41,233.656 444.883,225.805C438.36,217.95 429.301,212.621 419.266,210.735C417.278,199.903 411.266,190.223 402.434,183.641C393.602,177.059 382.61,174.063 371.661,175.258C360.712,176.45 350.618,181.739 343.411,190.067C342.02,191.661 341.251,193.708 341.251,195.825L341.251,227.501L323.751,227.501C318.919,227.501 315.001,231.419 315.001,236.251C315.001,241.083 318.919,245.001 323.751,245.001L341.251,245.001L341.251,288.751C341.251,293.583 337.333,297.501 332.501,297.501C327.669,297.501 323.751,293.583 323.751,288.751C323.751,283.919 319.833,280.001 315.001,280.001C310.169,280.001 306.251,283.919 306.251,288.751C306.251,295.712 309.016,302.392 313.938,307.313C318.86,312.234 325.54,315.001 332.5,315.001C335.489,314.973 338.45,314.422 341.25,313.383L341.25,332.5L332.5,332.5C327.668,332.5 323.75,336.418 323.75,341.25C323.75,346.082 327.668,350 332.5,350L341.25,350L341.25,360.641C336.496,365.059 330.242,367.512 323.75,367.501C316.789,367.501 310.109,364.735 305.188,359.813C300.267,354.891 297.501,348.211 297.501,341.251C297.501,338.931 296.579,336.704 294.938,335.064C293.298,333.423 291.071,332.501 288.751,332.501C281.79,332.501 275.11,329.736 270.189,324.814C265.268,319.892 262.501,313.212 262.501,306.252C262.505,298.685 265.826,291.498 271.583,286.592C273.486,284.928 274.576,282.525 274.576,280.002C274.576,277.478 273.486,275.076 271.583,273.412C265.826,268.506 262.505,261.318 262.501,253.752C262.501,246.791 265.267,240.111 270.189,235.19C275.111,230.269 281.791,227.503 288.751,227.503C291.071,227.503 293.298,226.581 294.938,224.94C296.579,223.299 297.501,221.073 297.501,218.753C297.501,211.792 300.266,205.112 305.188,200.191C310.11,195.27 316.79,192.503 323.75,192.503C328.582,192.503 332.5,188.585 332.5,183.753C332.5,178.921 328.582,175.003 323.75,175.003C313.539,175.019 303.656,178.593 295.805,185.12C287.95,191.643 282.621,200.702 280.735,210.737C270.7,212.624 261.641,217.952 255.118,225.807C248.591,233.659 245.016,243.541 245.001,253.752C245.021,263.24 248.154,272.463 253.919,280.002C248.154,287.541 245.021,296.764 245.001,306.252C245.017,316.463 248.591,326.346 255.118,334.197C261.642,342.053 270.7,347.381 280.735,349.267C282.724,360.099 288.735,369.779 297.567,376.361C306.399,382.943 317.391,385.939 328.34,384.744C339.289,383.552 349.383,378.263 356.59,369.935C357.981,368.341 358.751,366.294 358.751,364.177L358.751,341.251L376.251,341.251C381.083,341.251 385.001,337.333 385.001,332.501C385.001,327.669 381.083,323.751 376.251,323.751L358.751,323.751L358.751,280.001C358.751,275.169 362.669,271.251 367.501,271.251C372.333,271.251 376.251,275.169 376.251,280.001C376.251,284.833 380.169,288.751 385.001,288.751C389.833,288.751 393.751,284.833 393.751,280.001C393.751,273.04 390.985,266.36 386.063,261.439C381.141,256.518 374.461,253.752 367.501,253.752C364.513,253.779 361.552,254.326 358.751,255.369L358.751,227.502L367.501,227.502C372.333,227.502 376.251,223.584 376.251,218.752C376.251,213.92 372.333,210.002 367.501,210.002L358.751,210.002L358.751,199.361C363.505,194.943 369.759,192.49 376.251,192.501C383.212,192.501 389.892,195.267 394.813,200.189C399.734,205.111 402.501,211.791 402.501,218.751C402.501,221.071 403.422,223.298 405.063,224.938C406.704,226.579 408.93,227.501 411.251,227.501C418.211,227.501 424.892,230.266 429.813,235.188C434.734,240.11 437.5,246.79 437.5,253.75C437.496,261.317 434.176,268.504 428.418,273.41C426.516,275.074 425.426,277.477 425.426,280C425.426,282.524 426.516,284.926 428.418,286.59C434.176,291.496 437.496,298.684 437.5,306.25C437.5,313.211 434.734,319.891 429.813,324.812C424.891,329.733 418.211,332.499 411.251,332.499C406.419,332.499 402.501,336.417 402.501,341.249C402.501,348.21 399.735,354.89 394.813,359.811C389.891,364.732 383.211,367.499 376.251,367.499C371.419,367.499 367.501,371.417 367.501,376.249C367.501,381.081 371.419,384.999 376.251,384.999C386.462,384.983 396.345,381.409 404.196,374.882C412.051,368.359 417.38,359.3 419.266,349.265C429.301,347.378 438.36,342.05 444.883,334.195C451.41,326.343 454.985,316.461 455,306.25C454.98,296.762 451.848,287.539 446.082,280C451.848,272.461 454.98,263.238 455,253.75Z" style="fill-rule:nonzero;"/>
        <path d="M516.25,358.75C511.418,358.75 507.5,354.832 507.5,350L507.5,288.75L472.5,288.75C467.668,288.75 463.75,284.832 463.75,280C463.75,275.168 467.668,271.25 472.5,271.25L516.25,271.25C518.57,271.25 520.797,272.172 522.438,273.813C524.078,275.453 525,277.68 525,280L525,350C525,352.32 524.078,354.547 522.438,356.188C520.797,357.828 518.57,358.75 516.25,358.75Z" style="fill-rule:nonzero;"/>
        <path d="M516.25,560C511.418,560 507.5,556.082 507.5,551.25L507.5,525C507.5,520.168 511.418,516.25 516.25,516.25C521.082,516.25 525,520.168 525,525L525,551.25C525,553.57 524.078,555.797 522.438,557.438C520.797,559.078 518.57,560 516.25,560Z" style="fill-rule:nonzero;"/>
        <path d="M577.5,542.5C575.18,542.5 572.953,541.578 571.313,539.938L553.813,522.438C550.496,519.004 550.547,513.547 553.922,510.171C557.297,506.796 562.754,506.746 566.188,510.062L583.688,527.562C586.188,530.066 586.938,533.828 585.582,537.097C584.227,540.367 581.039,542.5 577.5,542.5L577.5,542.5Z" style="fill-rule:nonzero;"/>
        <path d="M455,542.5C451.461,542.5 448.273,540.367 446.918,537.098C445.563,533.828 446.313,530.067 448.813,527.563L466.313,510.063C469.746,506.746 475.203,506.797 478.579,510.172C481.954,513.547 482.004,519.004 478.688,522.438L461.188,539.938C459.547,541.578 457.321,542.5 455,542.5L455,542.5Z" style="fill-rule:nonzero;"/>
        <path d="M516.25,463.75C509.289,463.75 502.609,460.984 497.688,456.063C492.767,451.141 490.001,444.461 490.001,437.501C490.001,430.54 492.766,423.859 497.688,418.938C502.61,414.018 509.29,411.251 516.25,411.251C523.21,411.251 529.891,414.017 534.812,418.938C539.733,423.86 542.5,430.54 542.5,437.501C542.5,444.461 539.734,451.142 534.812,456.063C529.89,460.984 523.21,463.75 516.25,463.75ZM516.25,428.75C512.711,428.75 509.52,430.883 508.168,434.152C506.813,437.422 507.559,441.184 510.063,443.688C512.566,446.191 516.328,446.938 519.598,445.582C522.867,444.23 525,441.039 525,437.5C525,435.18 524.078,432.953 522.438,431.313C520.797,429.672 518.57,428.75 516.25,428.75Z" style="fill-rule:nonzero;"/>
        <path d="M628.07,432.02C626.234,429.735 582.492,376.247 516.25,376.247C450.008,376.247 406.26,429.735 404.43,432.02C401.86,435.219 401.86,439.774 404.43,442.973C406.266,445.258 450.008,498.746 516.25,498.746C537.98,498.773 558.098,487.269 569.09,468.527C580.086,449.785 580.313,426.613 569.688,407.66C584.395,415.496 597.805,425.558 609.438,437.496C603.34,443.746 596.754,449.504 589.75,454.715C587.734,456.039 586.355,458.137 585.937,460.512C585.519,462.887 586.097,465.328 587.539,467.262C588.984,469.196 591.16,470.449 593.554,470.723C595.953,470.996 598.355,470.274 600.199,468.715C610.422,461.227 619.758,452.594 628.023,442.981C630.609,439.794 630.632,435.235 628.074,432.02L628.07,432.02ZM423.06,437.497C434.693,425.563 448.103,415.497 462.81,407.661C452.392,426.188 452.392,448.806 462.81,467.333C448.103,459.497 434.693,449.431 423.06,437.497ZM560,437.497C560,449.099 555.391,460.227 547.188,468.435C538.981,476.638 527.852,481.247 516.25,481.247C504.648,481.247 493.52,476.637 485.312,468.435C477.109,460.228 472.5,449.099 472.5,437.497C472.5,425.895 477.109,414.767 485.312,406.559C493.519,398.356 504.648,393.747 516.25,393.747C527.848,393.762 538.969,398.376 547.172,406.575C555.371,414.778 559.984,425.899 560,437.497Z" style="fill-rule:nonzero;"/>
    </g>
</svg>
