<?xml version="1.0" encoding="UTF-8" standalone="no"?>
<!DOCTYPE svg PUBLIC "-//W3C//DTD SVG 1.1//EN" "http://www.w3.org/Graphics/SVG/1.1/DTD/svg11.dtd">
<svg width="100%" height="100%" viewBox="0 0 512 512" version="1.1" xmlns="http://www.w3.org/2000/svg" xmlns:xlink="http://www.w3.org/1999/xlink" xml:space="preserve" xmlns:serif="http://www.serif.com/" style="fill-rule:evenodd;clip-rule:evenodd;stroke-linejoin:round;stroke-miterlimit:2;">
    <g transform="matrix(2.20394,0,0,2.20394,-330.638,-302.186)">
        <circle cx="266.176" cy="253.267" r="91.524" style="fill:rgb(50,174,211);"/>
    </g>
    <g transform="matrix(1.50102,0,0,1.50102,-139.274,-150.465)">
        <g transform="matrix(1,0,0,1,54.6298,12.3517)">
            <path d="M191.124,182.829C191.124,182.829 192.494,217.5 211.601,234.477C230.996,251.71 250.956,280.552 296.494,254.925C308.617,248.102 301.801,281.622 283.624,303.872C270.711,319.679 250.002,330.318 233.579,333.002C183.903,341.121 128.115,301.078 128.115,250.744C128.115,200.41 191.124,182.829 191.124,182.829Z" style="fill:rgb(233,28,28);"/>
        </g>
        <g transform="matrix(-0.0514542,-0.765119,1.64756,-0.110798,-210.476,366.416)">
            <path d="M121.079,234.384C124.598,234.384 131.636,246.031 131.636,246.031L110.522,246.031C110.522,246.031 117.56,234.384 121.079,234.384Z" style="fill:rgb(233,28,28);"/>
        </g>
        <g transform="matrix(1,0,0,1,54.6298,12.3517)">
            <path d="M155.316,201.928C165.179,197.778 194.243,229.645 186.736,235.165C178.063,241.544 166.393,241.366 153.646,246.57C146.081,249.658 138.625,261.65 129.856,258.879C124.093,257.058 129.238,212.9 155.316,201.928Z" style="fill:rgb(18,18,18);"/>
        </g>
        <g transform="matrix(1.07086,0,0,1.07086,47.4056,-3.41595)">
            <circle cx="146.396" cy="229.356" r="6.839" style="fill:rgb(244,244,244);"/>
        </g>
        <g transform="matrix(0.705714,0,0,0.705714,100.862,80.3324)">
            <circle cx="146.396" cy="229.356" r="6.839"/>
        </g>
        <g transform="matrix(0.300136,0,0,0.300136,164.014,171.138)">
            <circle cx="146.396" cy="229.356" r="6.839" style="fill:rgb(244,244,244);"/>
        </g>
        <g transform="matrix(1,0,0,1,53.6298,11.3517)">
            <path d="M213.197,237.462C200.557,226.986 170.119,274.006 191.012,291.442C215.517,311.893 293.975,281.722 269.117,273.579C243.61,265.222 223.741,246.202 213.197,237.462Z" style="fill:rgb(209,12,12);"/>
        </g>
    </g>
</svg>
