<?xml version="1.0" encoding="UTF-8" standalone="no"?>
<!DOCTYPE svg PUBLIC "-//W3C//DTD SVG 1.1//EN" "http://www.w3.org/Graphics/SVG/1.1/DTD/svg11.dtd">
<svg width="100%" height="100%" viewBox="0 0 65 65" version="1.1" xmlns="http://www.w3.org/2000/svg" xmlns:xlink="http://www.w3.org/1999/xlink" xml:space="preserve" xmlns:serif="http://www.serif.com/" style="fill-rule:evenodd;clip-rule:evenodd;stroke-linejoin:round;stroke-miterlimit:2;">
    <style>
        path {
            fill: black;
        }
        @media (prefers-color-scheme: dark) {
            path { fill: white; }
        }
    </style>
    <g transform="matrix(1,0,0,1,0.50165,0.499989)">
        <path d="M52,57L50,57L50,48C49.992,43.453 46.544,39.588 42.027,39.064C41.737,38.669 41.391,38.319 41,38.024L41,33.973C41.368,33.695 41.695,33.368 41.973,33L50,33C50.265,33 50.519,32.895 50.707,32.708L54.707,28.708C54.895,28.521 55,28.266 55,28.001C55,27.735 54.895,27.48 54.707,27.293L51.707,24.293C51.52,24.105 51.265,24 51,24C50.734,24 50.479,24.105 50.292,24.293L47.585,27L41.974,27C41.696,26.632 41.368,26.303 41,26.025L41,23L42,23C42.549,23 43,22.549 43,22L43,18.815C44.191,18.394 44.994,17.263 45,16L45,10C44.997,8.736 44.193,7.604 43,7.184L43,6C43,3.257 40.743,1 38,1C35.257,1 33,3.257 33,6L33,7.184C31.808,7.605 31.005,8.736 31,10L31,16C31.005,17.264 31.808,18.395 33,18.816L33,22C33,22.549 33.451,23 34,23L35,23L35,26.026C33.743,26.959 33,28.435 33,30C33,31.565 33.743,33.041 35,33.974L35,38.025C33.739,38.964 32.995,40.447 32.995,42.019C32.995,44.752 35.243,47 37.976,47C39.484,47 40.913,46.316 41.858,45.14C43.121,45.515 43.996,46.682 44,48L44,49L30,49C28.354,49 27,47.646 27,46L27,35.814C28.192,35.395 28.996,34.264 29,33L29,29C29,27.354 27.646,26 26,26L12,26C10.354,26 9,27.354 9,29C9,30.646 10.354,32 12,32L15,32L15,33C15,34.646 16.354,36 18,36L21,36L21,46C21.005,50.935 25.065,54.995 30,55L32,55L32,57L21,57L21,56C20.995,54.736 20.192,53.605 19,53.184L19,48C19,46.354 17.646,45 16,45C14.354,45 13,46.354 13,48L13,53.184C11.808,53.605 11.005,54.736 11,56L11,57.184C9.803,57.603 8.996,58.74 8.996,60.008C8.996,61.649 10.347,63 11.988,63C11.992,63 11.996,63 12,63L52,63C53.646,63 55,61.646 55,60C55,58.354 53.646,57 52,57ZM12,30C11.451,30 11,29.549 11,29C11,28.451 11.451,28 12,28L15,28L15,30L12,30ZM48,29C48.265,29 48.519,28.895 48.707,28.708L51,26.414L52.585,28L49.585,31L42.9,31C43.035,30.34 43.035,29.66 42.9,29L48,29ZM35,21L35,19L41,19L41,21L35,21ZM43,16C43,16.549 42.549,17 42,17L34,17C33.451,17 33,16.549 33,16L33,10C33,9.451 33.451,9 34,9L42,9C42.549,9 43,9.451 43,10L43,16ZM38,3C39.646,3 41,4.354 41,6L41,7L35,7L35,6C35,4.354 36.354,3 38,3ZM37,23L39,23L39,25.1C38.34,24.965 37.66,24.965 37,25.1L37,23ZM38,27C39.646,27 41,28.354 41,30C41,31.646 39.646,33 38,33C36.354,33 35,31.646 35,30C35,28.354 36.354,27 38,27ZM37,34.9C37.66,35.035 38.34,35.035 39,34.9L39,37.1C38.34,36.965 37.66,36.965 37,37.1L37,34.9ZM38,45C36.354,45 35,43.646 35,42C35,40.354 36.354,39 38,39C39.646,39 41,40.354 41,42C41,43.646 39.646,45 38,45ZM42.791,43.348C43.011,42.68 43.058,41.968 42.926,41.277C45.917,42.135 47.995,44.888 48,48L48,49L46,49L46,48C45.994,45.939 44.715,44.084 42.791,43.346L42.791,43.348ZM34,51L48,51L48,57L34,57L34,51ZM17,33L17,28L26,28C26.549,28 27,28.451 27,29L27,33C27,33.549 26.549,34 26,34L18,34C17.451,34 17,33.549 17,33ZM30,53C26.161,52.996 23.004,49.839 23,46L23,36L25,36L25,46C25,48.743 27.257,51 30,51L32,51L32,53L30,53ZM16,47C16.549,47 17,47.451 17,48L17,53L15,53L15,48C15,47.451 15.451,47 16,47ZM14,55L18,55C18.549,55 19,55.451 19,56L19,57L13,57L13,56C13,55.451 13.451,55 14,55ZM52,61L12,61C11.451,61 11,60.549 11,60C11,59.451 11.451,59 12,59L52,59C52.549,59 53,59.451 53,60C53,60.549 52.549,61 52,61Z" style="fill-rule:nonzero;"/>
    </g>
</svg>
