<?xml version="1.0" encoding="UTF-8" standalone="no"?>
<!DOCTYPE svg PUBLIC "-//W3C//DTD SVG 1.1//EN" "http://www.w3.org/Graphics/SVG/1.1/DTD/svg11.dtd">
<svg width="100%" height="100%" viewBox="0 0 65 65" version="1.1" xmlns="http://www.w3.org/2000/svg" xmlns:xlink="http://www.w3.org/1999/xlink" xml:space="preserve" xmlns:serif="http://www.serif.com/" style="fill-rule:evenodd;clip-rule:evenodd;stroke-linejoin:round;stroke-miterlimit:2;">
    <style>
        path {
            fill: black;
        }
        @media (prefers-color-scheme: dark) {
            path { fill: white; }
        }
    </style>
    <g transform="matrix(1,0,0,1,0.5,0.499941)">
        <path d="M18,34C13.063,34 9,38.063 9,43C9,47.937 13.063,52 18,52C22.937,52 27,47.937 27,43C26.995,38.065 22.935,34.005 18,34ZM18,50C14.16,50 11,46.84 11,43C11,39.16 14.16,36 18,36C21.84,36 25,39.16 25,43C24.996,46.839 21.839,49.996 18,50Z" style="fill-rule:nonzero;"/>
        <path d="M46,34C41.063,34 37,38.063 37,43C37,47.937 41.063,52 46,52C50.937,52 55,47.937 55,43C54.995,38.065 50.935,34.005 46,34ZM46,50C42.16,50 39,46.84 39,43C39,39.16 42.16,36 46,36C49.84,36 53,39.16 53,43C52.996,46.838 49.838,49.996 46,50Z" style="fill-rule:nonzero;"/>
        <path d="M34,19C34,17.903 33.097,17 32,17C30.903,17 30,17.903 30,19C30,20.097 30.903,21 32,21C33.097,21 34,20.097 34,19Z" style="fill-rule:nonzero;"/>
        <path d="M63,29C63,27.354 61.646,26 60,26C58.354,26 57,27.354 57,29L57,36.086C54.813,32.604 51.099,30.358 47,30.037L47,29C47,27.354 45.646,26 44,26L38,26C36.354,26 35,27.354 35,29L35,36.067C34.42,36.983 33.957,37.969 33.622,39L33,39L33,24.909C34.757,24.609 36.293,23.542 37.187,22L56,22C57.646,22 59,20.646 59,19C59,17.354 57.646,16 56,16L37.187,16C36.661,15.092 35.907,14.337 35,13.81L35,11C35,9.354 33.646,8 32,8C30.354,8 29,9.354 29,11L29,13.813C28.093,14.339 27.339,15.093 26.812,16L8,16C6.354,16 5,17.354 5,19C5,20.646 6.354,22 8,22L26.812,22C27.706,23.542 29.242,24.609 31,24.909L31,39L30.378,39C30.043,37.969 29.58,36.983 29,36.067L29,29C29,27.354 27.646,26 26,26L20,26C18.354,26 17,27.354 17,29L17,30.038C12.901,30.358 9.188,32.603 7,36.084L7,29C7,27.354 5.646,26 4,26C2.354,26 1,27.354 1,29L1,43C1.003,45.742 3.258,47.997 6,48L6.017,48C8.021,52.85 12.785,56.022 18.033,56C18.516,56 18.998,55.973 19.478,55.92C23.023,55.511 26.248,53.658 28.385,50.8L29.585,52C30.91,53.324 33.09,53.324 34.415,52L35.615,50.8C37.753,53.658 40.978,55.511 44.524,55.919C45.004,55.972 45.486,55.999 45.969,55.999C51.217,56.022 55.981,52.85 57.984,47.999L58,47.999C60.741,47.995 62.996,45.74 63,42.999L63,29ZM49,20L49,18L51,18L51,20L49,20ZM57,19C57,19.549 56.549,20 56,20L53,20L53,18L56,18C56.549,18 57,18.451 57,19ZM47,18L47,20L37.909,20C38.029,19.339 38.029,18.661 37.909,18L47,18ZM15,18L15,20L13,20L13,18L15,18ZM7,19C7,18.451 7.451,18 8,18L11,18L11,20L8,20C7.451,20 7,19.549 7,19ZM17,20L17,18L26.09,18C25.97,18.661 25.97,19.339 26.09,20L17,20ZM31,11C31,10.451 31.451,10 32,10C32.549,10 33,10.451 33,11L33,13.09C32.339,12.97 31.661,12.97 31,13.09L31,11ZM28,19C28,16.806 29.806,15 32,15C34.194,15 36,16.806 36,19C36,21.194 34.194,23 32,23C29.806,23 28,21.194 28,19ZM59.292,28.292C59.48,28.104 59.734,27.998 60,27.998C60.549,27.998 61,28.45 61,28.998C61,28.999 61,28.999 61,29L61,39.025C60.411,38.571 59.728,38.255 59,38.101L59,29C58.999,28.735 59.104,28.479 59.292,28.292ZM38,28L44,28C44.549,28 45,28.451 45,29L45,30L37,30L37,29C37,28.451 37.451,28 38,28ZM33.153,41C32.977,42.141 32.952,43.301 33.077,44.449C33.097,44.635 33.133,44.817 33.162,45.001L30.836,45.001C30.865,44.817 30.901,44.636 30.921,44.449C31.046,43.301 31.021,42.142 30.846,41L33.153,41ZM20,28L26,28C26.549,28 27,28.451 27,29L27,30L19,30L19,29C19,28.451 19.451,28 20,28ZM4,28C4.549,28 5,28.451 5,29L5,38.1C4.272,38.253 3.589,38.569 3,39.023L3,29C3,28.451 3.451,28 4,28ZM3,43L3,42.99C3.006,41.596 3.984,40.38 5.345,40.076C4.886,41.998 4.886,44 5.345,45.922C3.981,45.617 3.003,44.397 3,43ZM19.256,53.93C18.845,53.977 18.431,54 18.017,54C11.983,54 7.017,49.034 7.017,43C7.017,36.972 11.972,32.009 18,32L27,32L27,36.363C27,36.56 27.058,36.753 27.167,36.917C28.365,38.72 29.004,40.838 29.004,43.003C29.004,48.566 24.784,53.297 19.257,53.931L19.256,53.93ZM33,50.585C32.443,51.116 31.557,51.116 31,50.585L29.486,49.071C29.839,48.408 30.132,47.715 30.364,47L33.634,47C33.866,47.715 34.16,48.408 34.513,49.072L33,50.585ZM53.336,51.196C51.32,53 48.707,53.998 46.002,53.998C39.967,53.998 35.002,49.032 35.002,42.998C35.002,40.835 35.64,38.719 36.836,36.916C36.944,36.752 37.001,36.559 37,36.362L37,32L46,32C46.002,32 46.003,32 46.005,32C52.039,32 57.005,36.966 57.005,43C57.005,46.129 55.67,49.114 53.337,51.2L53.336,51.196ZM58.656,45.923C59.115,44.001 59.115,41.998 58.656,40.076C60.021,40.38 61,41.601 61,43C61,44.398 60.021,45.619 58.656,45.923Z" style="fill-rule:nonzero;"/>
    </g>
</svg>
